#!OML:ASF I:\salsa\salsa 7_09\Patient 1\Session 1\dancermale.ASF
:FULLY-SPECIFIED
:DEGREES
1057
root 1.03376 16.3653 -4.21836 -0.957501 61.9399 714.407
lowerback 0.182457 8.68101 3.80519
upperback -2.21695 11.6616 0.413209
thorax -1.72819 5.77645 -1.77982
lowerneck -9.66807 -5.92681 -2.40255
upperneck 20.034 -7.56212 0.24588
head 7.87645 -3.65052 -0.23704
rclavicle 4.805e-015 1.98785e-016
rhumerus 8.8439 15.3867 -101.977
rradius 64.5165
rwrist 22.895
rhand -18.7537 -6.24874
rfingers 7.12502
rthumb 7.54291 -36.0942
lclavicle 4.805e-015 1.98785e-016
lhumerus -6.81485 -30.4983 84.8085
lradius 103.885
lwrist 22.2601
lhand -14.5377 44.3068
lfingers 7.12502
lthumb 11.6106 -286.035
rfemur -22.4404 -9.55551 21.5186
rtibia 48.2004
rfoot -27.5378 -18.0294
rtoes -15.1933
lfemur -43.259 -0.313068 -11.2973
ltibia 48.1136
lfoot -3.72431 0.547351
ltoes -2.4601
1058
root 1.12593 16.3364 -4.25452 -1.54444 60.0473 714.366
lowerback 1.38134 8.74125 4.12441
upperback -2.72498 11.8312 0.413017
thorax -2.8486 5.81964 -2.19954
lowerneck -8.94693 -5.38578 -2.23539
upperneck 20.5805 -6.93672 0.7248
head 7.93035 -3.28279 -0.0308858
rclavicle 4.72859e-014 -5.36719e-015
rhumerus 6.76951 16.2412 -102.968
rradius 66.1725
rwrist 22.1297
rhand -18.236 -7.05039
rfingers 7.12502
rthumb 8.04258 -36.8774
lclavicle 4.72859e-014 -5.36719e-015
lhumerus -5.38752 -31.3017 84.9374
lradius 102.306
lwrist 20.3489
lhand -14.2544 43.5289
lfingers 7.12502
lthumb 11.8838 -286.828
rfemur -21.9186 -8.78317 21.223
rtibia 48.7171
rfoot -28.3399 -16.9454
rtoes -15.725
lfemur -43.7777 0.427277 -10.6171
ltibia 50.9831
lfoot -2.80431 -0.470522
ltoes -3.3261
1059
root 1.2332 16.3029 -4.30187 -1.47657 58.2983 714.771
lowerback 1.24947 8.65377 4.06382
upperback -2.5585 11.7009 0.533197
thorax -2.64686 5.76407 -2.00923
lowerneck -8.72905 -4.75785 -1.90719
upperneck 20.6677 -6.15731 0.885766
head 7.90079 -2.87086 0.0490107
rclavicle -1.93194e-014 -1.13307e-014
rhumerus 5.48693 18.0195 -103.078
rradius 67.5712
rwrist 21.034
rhand -17.4146 -7.51777
rfingers 7.12502
rthumb 8.83525 -37.3128
lclavicle -1.93194e-014 -1.13307e-014
lhumerus -2.94638 -31.7283 84.7691
lradius 100.476
lwrist 18.7488
lhand -14.0419 42.6678
lfingers 7.12502
lthumb 12.0887 -287.701
rfemur -21.6951 -8.29627 20.5979
rtibia 49.2224
rfoot -28.7816 -15.9955
rtoes -16.4551
lfemur -44.7529 0.495962 -9.71499
ltibia 53.7022
lfoot -1.62007 -2.1578
ltoes -1.15795
1060
root 1.35576 16.2692 -4.35897 -0.940344 56.5585 715.553
lowerback 0.458552 8.48419 3.84204
upperback -2.06759 11.4075 0.570692
thorax -1.7651 5.64855 -1.67606
lowerneck -8.90146 -4.12129 -1.52632
upperneck 20.6683 -5.37627 1.02772
head 7.91238 -2.459 0.103394
rclavicle 8.18434e-014 9.54166e-015
rhumerus 4.48896 20.4821 -102.761
rradius 69.1363
rwrist 18.226
rhand -18.2853 -8.10288
rfingers 7.12502
rthumb 7.99494 -37.9317
lclavicle 8.18434e-014 9.54166e-015
lhumerus 0.132189 -32.2035 84.203
lradius 98.439
lwrist 17.3433
lhand -13.6871 41.9261
lfingers 7.12502
lthumb 12.4308 -288.464
rfemur -21.7105 -7.9737 19.6274
rtibia 49.7978
rfoot -29.0048 -15.1323
rtoes -18.7487
lfemur -45.8909 0.344248 -8.83054
ltibia 56.5232
lfoot -1.27176 -4.18921
ltoes -1.78995
1061
root 1.4881 16.2435 -4.42112 -0.432437 54.5783 716.4
lowerback 0.0584362 8.33358 3.71378
upperback -1.78281 11.1695 0.408241
thorax -1.25268 5.54326 -1.67887
lowerneck -9.02865 -3.4982 -1.15688
upperneck 20.9378 -4.6681 1.44552
head 8.01605 -2.04987 0.243137
rclavicle -2.96686e-014 2.18663e-015
rhumerus 3.02077 22.0056 -102.969
rradius 71.5378
rwrist 17.0225
rhand -17.3831 -8.54144
rfingers 7.12502
rthumb 8.86571 -38.3352
lclavicle -2.96686e-014 2.18663e-015
lhumerus 2.8934 -33.0926 83.4144
lradius 96.3282
lwrist 15.4843
lhand -12.9747 41.3563
lfingers 7.12502
lthumb 13.1176 -289.076
rfemur -21.7024 -7.46894 18.5345
rtibia 50.3795
rfoot -29.2472 -14.1226
rtoes -20.8346
lfemur -46.5971 0.10612 -7.57169
ltibia 58.9203
lfoot -1.24149 -6.66872
ltoes 0.593311
1062
root 1.62358 16.2258 -4.49619 -0.0671726 52.4988 717.027
lowerback 0.148231 8.1293 3.69694
upperback -1.87354 10.8998 0.210714
thorax -1.37479 5.40352 -1.89229
lowerneck -8.84246 -3.0615 -1.13803
upperneck 21.3329 -4.19314 2.04281
head 8.12052 -1.75851 0.484958
rclavicle 9.76933e-014 1.13307e-014
rhumerus 0.765956 23.2514 -103.56
rradius 74.4036
rwrist 15.7977
rhand -17.7897 -9.44383
rfingers 7.12502
rthumb 8.47326 -39.2538
lclavicle 9.76933e-014 1.13307e-014
lhumerus 4.64793 -34.0828 82.9395
lradius 94.2923
lwrist 12.9235
lhand -11.9649 41.3284
lfingers 7.12502
lthumb 14.0909 -289.169
rfemur -21.8613 -6.79168 17.5391
rtibia 51.0007
rfoot -29.4351 -13.0335
rtoes -22.0841
lfemur -47.0147 -0.252191 -5.83972
ltibia 60.7106
lfoot -1.15237 -9.72498
ltoes 3.62669
